<svg width="24" height="24" viewBox="0 0 24 24" fill="none" xmlns="http://www.w3.org/2000/svg">
<g clip-path="url(#clip0_373_1480)">
<path d="M22.6754 24.0001C23.4068 24.0001 24 23.407 24 22.6755V1.32459C24 0.592969 23.4068 0 22.6754 0H1.32459C0.592875 0 0 0.592969 0 1.32459V22.6755C0 23.407 0.592875 24.0001 1.32459 24.0001H22.6754Z" fill="#395185"/>
<path d="M16.5594 24.0001V14.706H19.6792L20.1462 11.084H16.5594V8.77135C16.5594 7.72266 16.8507 7.008 18.3546 7.008L20.2726 7.00716V3.76763C19.9407 3.72347 18.8022 3.62485 17.4777 3.62485C14.7123 3.62485 12.8191 5.31282 12.8191 8.41275V11.084H9.69141V14.706H12.8191V24.0001H16.5594Z" fill="white"/>
</g>
<defs>
<clipPath id="clip0_373_1480">
<rect width="24" height="24" fill="white"/>
</clipPath>
</defs>
</svg>
