<svg width="18" height="22" viewBox="0 0 18 22" fill="none" xmlns="http://www.w3.org/2000/svg">
<path d="M11.55 4.25C12.65 4.25 13.55 3.35 13.55 2.25C13.55 1.15 12.65 0.25 11.55 0.25C10.45 0.25 9.54995 1.15 9.54995 2.25C9.54995 3.35 10.45 4.25 11.55 4.25ZM7.94995 18.15L8.94995 13.75L11.05 15.75V21.75H13.05V14.25L10.95 12.25L11.55 9.25C12.85 10.75 14.85 11.75 17.05 11.75V9.75C15.15 9.75 13.55 8.75 12.75 7.35L11.75 5.75C11.35 5.15 10.75 4.75 10.05 4.75C9.74995 4.75 9.54995 4.85 9.24995 4.85L4.04995 7.05V11.75H6.04995V8.35L7.84995 7.65L6.24995 15.75L1.34995 14.75L0.949951 16.75L7.94995 18.15Z" fill="black"/>
</svg>
